<svg version="1.1" id="Layer_1" xmlns="http://www.w3.org/2000/svg" xmlns:xlink="http://www.w3.org/1999/xlink" x="0px" y="0px"
	 width="100%" viewBox="0 0 96 96" enable-background="new 0 0 96 96" xml:space="preserve">
<path fill="#000000" opacity="1.000000" stroke="none" 
	d="
M62.000000,97.000000 
	C41.333332,97.000000 21.166666,97.000000 1.000000,97.000000 
	C1.000000,65.000000 1.000000,33.000000 1.000000,1.000000 
	C33.000000,1.000000 65.000000,1.000000 97.000000,1.000000 
	C97.000000,33.000000 97.000000,65.000000 97.000000,97.000000 
	C85.500000,97.000000 74.000000,97.000000 62.000000,97.000000 
M17.000059,63.895428 
	C16.999794,78.106674 22.462175,85.271156 36.430511,87.863419 
	C42.676918,89.022636 49.235176,89.226929 55.597340,88.875832 
	C66.583611,88.269524 77.172226,84.101723 81.652496,70.913322 
	C84.107353,63.687038 79.526634,57.001823 71.885857,57.000694 
	C56.220329,56.998379 40.554592,57.044800 24.889412,56.970833 
	C20.574747,56.950462 17.600052,58.334194 17.000059,63.895428 
M53.076057,9.000046 
	C49.185841,9.295379 44.978737,8.740962 41.466778,10.050624 
	C32.157902,13.522042 28.618883,20.679399 28.783472,30.691776 
	C28.895182,37.487450 34.188190,45.536972 42.106354,48.583450 
	C48.337997,50.981049 60.415924,48.018116 64.347717,43.136028 
	C73.421043,31.869715 70.226784,13.045015 53.076057,9.000046 
z"/>
<path fill="#FFFFFF" opacity="1.000000" stroke="none" 
	d="
M17.000507,63.449303 
	C17.600052,58.334194 20.574747,56.950462 24.889412,56.970833 
	C40.554592,57.044800 56.220329,56.998379 71.885857,57.000694 
	C79.526634,57.001823 84.107353,63.687038 81.652496,70.913322 
	C77.172226,84.101723 66.583611,88.269524 55.597340,88.875832 
	C49.235176,89.226929 42.676918,89.022636 36.430511,87.863419 
	C22.462175,85.271156 16.999794,78.106674 17.000507,63.449303 
M45.500298,63.000000 
	C39.523148,63.000114 33.540710,62.850868 27.571039,63.062206 
	C24.501547,63.170876 22.680689,64.114182 23.518570,68.309425 
	C24.857613,75.013992 28.883141,78.756355 34.949657,79.872620 
	C41.937889,81.158485 49.175179,82.176849 56.222916,81.797874 
	C66.705696,81.234192 71.696373,76.561684 74.178596,68.716293 
	C75.665070,64.018105 73.697350,63.048435 69.910545,63.018562 
	C62.107529,62.957005 54.303684,63.000015 45.500298,63.000000 
z"/>
<path fill="#FFFFFF" opacity="1.000000" stroke="none" 
	d="
M53.517982,9.000379 
	C70.226784,13.045015 73.421043,31.869715 64.347717,43.136028 
	C60.415924,48.018116 48.337997,50.981049 42.106354,48.583450 
	C34.188190,45.536972 28.895182,37.487450 28.783472,30.691776 
	C28.618883,20.679399 32.157902,13.522042 41.466778,10.050624 
	C44.978737,8.740962 49.185841,9.295379 53.517982,9.000379 
M61.999245,25.995186 
	C60.655380,20.845074 57.349251,17.294909 52.304405,16.103519 
	C46.101406,14.638620 40.296375,16.726299 37.550343,22.337860 
	C35.901859,25.706564 35.938148,30.763128 37.136127,34.435085 
	C38.523434,38.687351 42.083420,41.994877 47.489113,42.035278 
	C57.732853,42.111835 62.000042,37.744175 61.999245,25.995186 
z"/>
<path fill="#000000" opacity="1.000000" stroke="none" 
	d="
M46.000240,63.000000 
	C54.303684,63.000015 62.107529,62.957005 69.910545,63.018562 
	C73.697350,63.048435 75.665070,64.018105 74.178596,68.716293 
	C71.696373,76.561684 66.705696,81.234192 56.222916,81.797874 
	C49.175179,82.176849 41.937889,81.158485 34.949657,79.872620 
	C28.883141,78.756355 24.857613,75.013992 23.518570,68.309425 
	C22.680689,64.114182 24.501547,63.170876 27.571039,63.062206 
	C33.540710,62.850868 39.523148,63.000114 46.000240,63.000000 
z"/>
<path fill="#000000" opacity="1.000000" stroke="none" 
	d="
M61.999596,26.425266 
	C62.000042,37.744175 57.732853,42.111835 47.489113,42.035278 
	C42.083420,41.994877 38.523434,38.687351 37.136127,34.435085 
	C35.938148,30.763128 35.901859,25.706564 37.550343,22.337860 
	C40.296375,16.726299 46.101406,14.638620 52.304405,16.103519 
	C57.349251,17.294909 60.655380,20.845074 61.999596,26.425266 
z"/>
</svg>